<?xml version="1.0" encoding="UTF-8"?>
<svg xmlns="http://www.w3.org/2000/svg" xmlns:xlink="http://www.w3.org/1999/xlink" width="80pt" height="80pt" viewBox="0 0 80 80" version="1.1">
<g id="surface1">
<path style=" stroke:none;fill-rule:nonzero;fill:rgb(26.666667%,52.156863%,77.254902%);fill-opacity:1;" d="M 13.109375 26.8125 L 13.109375 24.28125 C 13.109375 23.75 12.683594 23.324219 12.148438 23.324219 L 9.320312 23.324219 C 7.652344 23.324219 6.285156 24.675781 6.285156 26.359375 C 6.285156 28.023438 7.636719 29.390625 9.320312 29.390625 L 14.476562 29.390625 L 14.476562 26.8125 Z M 13.109375 26.8125 "/>
<path style=" stroke:none;fill-rule:nonzero;fill:rgb(26.666667%,52.156863%,77.254902%);fill-opacity:1;" d="M 66.890625 26.8125 L 66.890625 24.28125 C 66.890625 23.75 67.316406 23.324219 67.851562 23.324219 L 70.679688 23.324219 C 72.347656 23.324219 73.714844 24.675781 73.714844 26.359375 C 73.714844 28.023438 72.363281 29.390625 70.679688 29.390625 L 65.523438 29.390625 L 65.523438 26.8125 Z M 66.890625 26.8125 "/>
<path style=" stroke:none;fill-rule:nonzero;fill:rgb(20%,21.960784%,25.882353%);fill-opacity:1;" d="M 7.292969 48.972656 L 7.292969 66.261719 C 7.292969 67.050781 7.9375 67.695312 8.722656 67.695312 L 15.527344 67.695312 C 16.3125 67.695312 16.957031 67.050781 16.957031 66.261719 L 16.957031 48.972656 Z M 7.292969 48.972656 "/>
<path style=" stroke:none;fill-rule:nonzero;fill:rgb(20%,21.960784%,25.882353%);fill-opacity:1;" d="M 63.027344 48.972656 L 63.027344 66.261719 C 63.027344 67.050781 63.671875 67.695312 64.457031 67.695312 L 71.261719 67.695312 C 72.046875 67.695312 72.691406 67.050781 72.691406 66.261719 L 72.691406 48.972656 Z M 63.027344 48.972656 "/>
<path style=" stroke:none;fill-rule:nonzero;fill:rgb(35.294118%,64.313725%,81.960784%);fill-opacity:1;" d="M 72.753906 38.476562 C 71.859375 35.929688 69.59375 35.175781 68.699219 32.472656 C 67.804688 29.769531 61.03125 15.636719 57.585938 13.847656 C 54.144531 12.054688 40 12.339844 40 12.339844 C 40 12.339844 25.886719 12.039062 22.429688 13.847656 C 18.96875 15.652344 12.210938 29.753906 11.300781 32.457031 C 10.40625 35.160156 8.140625 35.914062 7.246094 38.460938 C 6.351562 41.007812 7.703125 60.101562 9.507812 61.453125 C 11.316406 62.804688 40 63.105469 40 63.105469 C 40 63.105469 68.699219 62.804688 70.492188 61.453125 C 72.296875 60.101562 73.648438 41.023438 72.753906 38.476562 Z M 72.753906 38.476562 "/>
<path style=" stroke:none;fill-rule:nonzero;fill:rgb(43.137255%,69.411765%,88.235294%);fill-opacity:1;" d="M 59.113281 23.339844 L 40 24.566406 L 20.886719 23.339844 L 14.960938 29.390625 C 14.960938 29.390625 24 41.761719 25.382812 45.265625 C 26.765625 48.769531 25.476562 49.585938 27.035156 50.59375 L 52.964844 50.59375 C 54.523438 49.570312 53.234375 48.769531 54.617188 45.265625 C 56 41.761719 65.039062 29.390625 65.039062 29.390625 Z M 59.113281 23.339844 "/>
<path style=" stroke:none;fill-rule:nonzero;fill:rgb(20%,21.960784%,25.882353%);fill-opacity:1;" d="M 52.070312 54.476562 L 27.929688 54.476562 C 26.515625 54.476562 25.382812 55.621094 25.382812 57.023438 C 25.382812 58.4375 26.53125 59.566406 27.929688 59.566406 L 52.070312 59.566406 C 53.484375 59.566406 54.617188 58.421875 54.617188 57.023438 C 54.617188 55.621094 53.484375 54.476562 52.070312 54.476562 Z M 52.070312 54.476562 "/>
<path style=" stroke:none;fill-rule:nonzero;fill:rgb(20%,21.960784%,25.882353%);fill-opacity:1;" d="M 10.765625 56.203125 L 11.695312 52.164062 C 11.914062 51.191406 12.808594 50.53125 13.800781 50.609375 L 20.589844 51.113281 C 22.003906 51.222656 22.851562 52.746094 22.175781 54.003906 L 20.417969 57.320312 C 20.164062 57.792969 19.644531 58.058594 19.113281 58.011719 L 11.394531 57.117188 C 10.96875 57.070312 10.671875 56.644531 10.765625 56.203125 Z M 10.765625 56.203125 "/>
<path style=" stroke:none;fill-rule:nonzero;fill:rgb(20%,21.960784%,25.882353%);fill-opacity:1;" d="M 69.234375 56.203125 L 68.304688 52.164062 C 68.085938 51.191406 67.191406 50.53125 66.199219 50.609375 L 59.410156 51.113281 C 57.996094 51.222656 57.148438 52.746094 57.824219 54.003906 L 59.582031 57.320312 C 59.835938 57.792969 60.355469 58.058594 60.886719 58.011719 L 68.605469 57.117188 C 69.03125 57.070312 69.328125 56.644531 69.234375 56.203125 Z M 69.234375 56.203125 "/>
<path style=" stroke:none;fill-rule:nonzero;fill:rgb(20%,21.960784%,25.882353%);fill-opacity:1;" d="M 38.648438 45.722656 L 27.804688 45.722656 C 27.066406 45.722656 26.453125 45.125 26.453125 44.371094 L 26.453125 39.324219 C 26.453125 38.976562 26.734375 38.710938 27.066406 38.710938 L 38.632812 38.710938 C 38.976562 38.710938 39.246094 38.992188 39.246094 39.324219 L 39.246094 45.09375 C 39.277344 45.453125 38.992188 45.722656 38.648438 45.722656 Z M 38.648438 45.722656 "/>
<path style=" stroke:none;fill-rule:nonzero;fill:rgb(20%,21.960784%,25.882353%);fill-opacity:1;" d="M 41.351562 45.722656 L 52.195312 45.722656 C 52.933594 45.722656 53.546875 45.125 53.546875 44.371094 L 53.546875 39.324219 C 53.546875 38.976562 53.265625 38.710938 52.933594 38.710938 L 41.367188 38.710938 C 41.023438 38.710938 40.753906 38.992188 40.753906 39.324219 L 40.753906 45.09375 C 40.722656 45.453125 41.007812 45.722656 41.351562 45.722656 Z M 41.351562 45.722656 "/>
<path style=" stroke:none;fill-rule:nonzero;fill:rgb(20%,21.960784%,25.882353%);fill-opacity:1;" d="M 52.933594 47.027344 L 27.128906 47.027344 C 26.53125 47.027344 26.136719 47.671875 26.4375 48.203125 L 27.238281 49.617188 C 27.378906 49.871094 27.644531 50.027344 27.929688 50.027344 L 52.148438 50.027344 C 52.433594 50.027344 52.699219 49.871094 52.839844 49.617188 L 53.640625 48.203125 C 53.925781 47.671875 53.546875 47.027344 52.933594 47.027344 Z M 52.933594 47.027344 "/>
<path style=" stroke:none;fill-rule:nonzero;fill:rgb(100%,100%,98.823529%);fill-opacity:1;" d="M 22.414062 43.425781 L 12.730469 43.425781 C 11.066406 43.425781 9.714844 42.074219 9.714844 40.410156 C 9.714844 38.492188 11.472656 37.078125 13.34375 37.453125 L 21.894531 39.246094 C 22.898438 39.449219 23.703125 40.171875 24.046875 41.132812 C 24.425781 42.261719 23.589844 43.425781 22.414062 43.425781 Z M 22.414062 43.425781 "/>
<path style=" stroke:none;fill-rule:nonzero;fill:rgb(100%,100%,98.823529%);fill-opacity:1;" d="M 57.585938 43.425781 L 67.269531 43.425781 C 68.933594 43.425781 70.285156 42.074219 70.285156 40.410156 C 70.285156 38.492188 68.527344 37.078125 66.65625 37.453125 L 58.105469 39.246094 C 57.101562 39.449219 56.296875 40.171875 55.953125 41.132812 C 55.574219 42.261719 56.410156 43.425781 57.585938 43.425781 Z M 57.585938 43.425781 "/>
<path style=" stroke:none;fill-rule:nonzero;fill:rgb(20%,21.960784%,25.882353%);fill-opacity:1;" d="M 58.230469 16.109375 C 56.078125 14.773438 40 14.945312 40 14.945312 C 40 14.945312 23.9375 14.773438 21.769531 16.109375 C 19.597656 17.445312 14.960938 29.40625 14.960938 29.40625 C 19.441406 28.320312 40 28.242188 40 28.242188 C 40 28.242188 60.558594 28.320312 65.039062 29.40625 C 65.039062 29.390625 60.386719 17.429688 58.230469 16.109375 Z M 58.230469 16.109375 "/>
</g>
</svg>
